<mxfile host="app.diagrams.net" modified="2024-05-29T16:32:51.801Z" agent="Mozilla/5.0 (Windows NT 10.0; Win64; x64) AppleWebKit/537.36 (KHTML, like Gecko) Chrome/125.0.0.0 Safari/537.36" etag="8WX8jubSQKK3W3HnJIzn" version="24.4.10" type="google">
  <diagram id="2f-2qWDGqXOQ07jMMjo4" name="Diagramme de classe">
    <mxGraphModel dx="2698" dy="518" grid="1" gridSize="10" guides="1" tooltips="1" connect="1" arrows="1" fold="1" page="1" pageScale="1" pageWidth="1654" pageHeight="1169" math="0" shadow="0">
      <root>
        <mxCell id="0" />
        <mxCell id="1" parent="0" />
        <mxCell id="MOAt3jkIIzCUCrUjRE3J-6" value="Personnel de santé" style="swimlane;fontStyle=1;align=center;verticalAlign=top;childLayout=stackLayout;horizontal=1;startSize=26;horizontalStack=0;resizeParent=1;resizeParentMax=0;resizeLast=0;collapsible=1;marginBottom=0;whiteSpace=wrap;html=1;labelBackgroundColor=none;fillColor=#21C0A5;strokeColor=#006658;fontColor=#5C5C5C;" parent="1" vertex="1">
          <mxGeometry x="450" y="262" width="140" height="52" as="geometry" />
        </mxCell>
        <mxCell id="MOAt3jkIIzCUCrUjRE3J-7" value="&lt;u&gt;id_personnel_santé: int&lt;/u&gt;" style="text;strokeColor=none;fillColor=none;align=left;verticalAlign=top;spacingLeft=4;spacingRight=4;overflow=hidden;rotatable=0;points=[[0,0.5],[1,0.5]];portConstraint=eastwest;whiteSpace=wrap;html=1;labelBackgroundColor=none;fontColor=#5C5C5C;" parent="MOAt3jkIIzCUCrUjRE3J-6" vertex="1">
          <mxGeometry y="26" width="140" height="26" as="geometry" />
        </mxCell>
        <mxCell id="MOAt3jkIIzCUCrUjRE3J-8" value="Chercheur" style="swimlane;fontStyle=1;align=center;verticalAlign=top;childLayout=stackLayout;horizontal=1;startSize=26;horizontalStack=0;resizeParent=1;resizeParentMax=0;resizeLast=0;collapsible=1;marginBottom=0;whiteSpace=wrap;html=1;labelBackgroundColor=none;fillColor=#21C0A5;strokeColor=#006658;fontColor=#5C5C5C;" parent="1" vertex="1">
          <mxGeometry x="852.5" y="210" width="115" height="52" as="geometry" />
        </mxCell>
        <mxCell id="MOAt3jkIIzCUCrUjRE3J-9" value="&lt;u&gt;id_chercheur : int&lt;/u&gt;" style="text;strokeColor=none;fillColor=none;align=left;verticalAlign=top;spacingLeft=4;spacingRight=4;overflow=hidden;rotatable=0;points=[[0,0.5],[1,0.5]];portConstraint=eastwest;whiteSpace=wrap;html=1;labelBackgroundColor=none;fontColor=#5C5C5C;" parent="MOAt3jkIIzCUCrUjRE3J-8" vertex="1">
          <mxGeometry y="26" width="115" height="26" as="geometry" />
        </mxCell>
        <mxCell id="MOAt3jkIIzCUCrUjRE3J-12" value="Contrôle technique&amp;nbsp;" style="swimlane;fontStyle=1;align=center;verticalAlign=top;childLayout=stackLayout;horizontal=1;startSize=26;horizontalStack=0;resizeParent=1;resizeParentMax=0;resizeLast=0;collapsible=1;marginBottom=0;whiteSpace=wrap;html=1;labelBackgroundColor=none;fillColor=#21C0A5;strokeColor=#006658;fontColor=#5C5C5C;" parent="1" vertex="1">
          <mxGeometry x="990" y="848" width="210" height="104" as="geometry" />
        </mxCell>
        <mxCell id="MOAt3jkIIzCUCrUjRE3J-13" value="&lt;u style=&quot;&quot;&gt;id_agence_de_verification:&amp;nbsp; int&lt;/u&gt;" style="text;strokeColor=none;fillColor=none;align=left;verticalAlign=top;spacingLeft=4;spacingRight=4;overflow=hidden;rotatable=0;points=[[0,0.5],[1,0.5]];portConstraint=eastwest;whiteSpace=wrap;html=1;labelBackgroundColor=none;fontColor=#5C5C5C;" parent="MOAt3jkIIzCUCrUjRE3J-12" vertex="1">
          <mxGeometry y="26" width="210" height="26" as="geometry" />
        </mxCell>
        <mxCell id="4ZgYQ5UGcpdkxXaDe-Za-14" value="nom_responsable&lt;span style=&quot;color: rgba(0, 0, 0, 0); font-family: monospace; font-size: 0px; text-wrap: nowrap;&quot;&gt;%3CmxGraphModel%3E%3Croot%3E%3CmxCell%20id%3D%220%22%2F%3E%3CmxCell%20id%3D%221%22%20parent%3D%220%22%2F%3E%3CmxCell%20id%3D%222%22%20value%3D%22adresse%20%3A%20String%22%20style%3D%22text%3BstrokeColor%3Dnone%3BfillColor%3Dnone%3Balign%3Dleft%3BverticalAlign%3Dtop%3BspacingLeft%3D4%3BspacingRight%3D4%3Boverflow%3Dhidden%3Brotatable%3D0%3Bpoints%3D%5B%5B0%2C0.5%5D%2C%5B1%2C0.5%5D%5D%3BportConstraint%3Deastwest%3BwhiteSpace%3Dwrap%3Bhtml%3D1%3BlabelBackgroundColor%3Dnone%3BfontColor%3D%235C5C5C%3B%22%20vertex%3D%221%22%20parent%3D%221%22%3E%3CmxGeometry%20x%3D%22640%22%20y%3D%22597%22%20width%3D%22160%22%20height%3D%2226%22%20as%3D%22geometry%22%2F%3E%3C%2FmxCell%3E%3C%2Froot%3E%3C%2FmxGraphModel%3E&lt;/span&gt;&amp;nbsp;: String" style="text;strokeColor=none;fillColor=none;align=left;verticalAlign=top;spacingLeft=4;spacingRight=4;overflow=hidden;rotatable=0;points=[[0,0.5],[1,0.5]];portConstraint=eastwest;whiteSpace=wrap;html=1;labelBackgroundColor=none;fontColor=#5C5C5C;" parent="MOAt3jkIIzCUCrUjRE3J-12" vertex="1">
          <mxGeometry y="52" width="210" height="26" as="geometry" />
        </mxCell>
        <mxCell id="4ZgYQ5UGcpdkxXaDe-Za-13" value="rapport&lt;span style=&quot;color: rgba(0, 0, 0, 0); font-family: monospace; font-size: 0px; text-wrap: nowrap;&quot;&gt;%3CmxGraphModel%3E%3Croot%3E%3CmxCell%20id%3D%220%22%2F%3E%3CmxCell%20id%3D%221%22%20parent%3D%220%22%2F%3E%3CmxCell%20id%3D%222%22%20value%3D%22adresse%20%3A%20String%22%20style%3D%22text%3BstrokeColor%3Dnone%3BfillColor%3Dnone%3Balign%3Dleft%3BverticalAlign%3Dtop%3BspacingLeft%3D4%3BspacingRight%3D4%3Boverflow%3Dhidden%3Brotatable%3D0%3Bpoints%3D%5B%5B0%2C0.5%5D%2C%5B1%2C0.5%5D%5D%3BportConstraint%3Deastwest%3BwhiteSpace%3Dwrap%3Bhtml%3D1%3BlabelBackgroundColor%3Dnone%3BfontColor%3D%235C5C5C%3B%22%20vertex%3D%221%22%20parent%3D%221%22%3E%3CmxGeometry%20x%3D%22640%22%20y%3D%22597%22%20width%3D%22160%22%20height%3D%2226%22%20as%3D%22geometry%22%2F%3E%3C%2FmxCell%3E%3C%2Froot%3E%3C%2FmxGraphModel%3E&lt;/span&gt;&amp;nbsp;: String" style="text;strokeColor=none;fillColor=none;align=left;verticalAlign=top;spacingLeft=4;spacingRight=4;overflow=hidden;rotatable=0;points=[[0,0.5],[1,0.5]];portConstraint=eastwest;whiteSpace=wrap;html=1;labelBackgroundColor=none;fontColor=#5C5C5C;" parent="MOAt3jkIIzCUCrUjRE3J-12" vertex="1">
          <mxGeometry y="78" width="210" height="26" as="geometry" />
        </mxCell>
        <mxCell id="MOAt3jkIIzCUCrUjRE3J-16" value="Prestataire de soins de santé" style="swimlane;fontStyle=1;align=center;verticalAlign=top;childLayout=stackLayout;horizontal=1;startSize=26;horizontalStack=0;resizeParent=1;resizeParentMax=0;resizeLast=0;collapsible=1;marginBottom=0;whiteSpace=wrap;html=1;labelBackgroundColor=none;fillColor=#21C0A5;strokeColor=#006658;fontColor=#5C5C5C;" parent="1" vertex="1">
          <mxGeometry x="640" y="110" width="210" height="52" as="geometry" />
        </mxCell>
        <mxCell id="MOAt3jkIIzCUCrUjRE3J-17" value="&lt;u&gt;id_prestataires : int&lt;/u&gt;" style="text;strokeColor=none;fillColor=none;align=left;verticalAlign=top;spacingLeft=4;spacingRight=4;overflow=hidden;rotatable=0;points=[[0,0.5],[1,0.5]];portConstraint=eastwest;whiteSpace=wrap;html=1;labelBackgroundColor=none;fontColor=#5C5C5C;" parent="MOAt3jkIIzCUCrUjRE3J-16" vertex="1">
          <mxGeometry y="26" width="210" height="26" as="geometry" />
        </mxCell>
        <mxCell id="MOAt3jkIIzCUCrUjRE3J-23" value="Technicien de laboratoire" style="swimlane;fontStyle=1;align=center;verticalAlign=top;childLayout=stackLayout;horizontal=1;startSize=26;horizontalStack=0;resizeParent=1;resizeLast=0;collapsible=1;marginBottom=0;rounded=0;shadow=0;strokeWidth=1;labelBackgroundColor=none;fillColor=#21C0A5;strokeColor=#006658;fontColor=#5C5C5C;" parent="1" vertex="1">
          <mxGeometry x="430" y="140" width="160" height="60" as="geometry">
            <mxRectangle x="130" y="380" width="160" height="26" as="alternateBounds" />
          </mxGeometry>
        </mxCell>
        <mxCell id="MOAt3jkIIzCUCrUjRE3J-24" value="id_technicien_labo : int" style="text;align=left;verticalAlign=top;spacingLeft=4;spacingRight=4;overflow=hidden;rotatable=0;points=[[0,0.5],[1,0.5]];portConstraint=eastwest;fontStyle=4;labelBackgroundColor=none;fontColor=#5C5C5C;" parent="MOAt3jkIIzCUCrUjRE3J-23" vertex="1">
          <mxGeometry y="26" width="160" height="22" as="geometry" />
        </mxCell>
        <mxCell id="MOAt3jkIIzCUCrUjRE3J-27" value="Humain" style="swimlane;fontStyle=1;align=center;verticalAlign=top;childLayout=stackLayout;horizontal=1;startSize=26;horizontalStack=0;resizeParent=1;resizeLast=0;collapsible=1;marginBottom=0;rounded=0;shadow=0;strokeWidth=1;labelBackgroundColor=none;fillColor=#21C0A5;strokeColor=#006658;fontColor=#5C5C5C;" parent="1" vertex="1">
          <mxGeometry x="640" y="342" width="160" height="108" as="geometry">
            <mxRectangle x="340" y="380" width="170" height="26" as="alternateBounds" />
          </mxGeometry>
        </mxCell>
        <mxCell id="MOAt3jkIIzCUCrUjRE3J-28" value="id_humain : int" style="text;align=left;verticalAlign=top;spacingLeft=4;spacingRight=4;overflow=hidden;rotatable=0;points=[[0,0.5],[1,0.5]];portConstraint=eastwest;fontStyle=4;labelBackgroundColor=none;fontColor=#5C5C5C;" parent="MOAt3jkIIzCUCrUjRE3J-27" vertex="1">
          <mxGeometry y="26" width="160" height="26" as="geometry" />
        </mxCell>
        <mxCell id="MOAt3jkIIzCUCrUjRE3J-29" value="nom : String" style="text;align=left;verticalAlign=top;spacingLeft=4;spacingRight=4;overflow=hidden;rotatable=0;points=[[0,0.5],[1,0.5]];portConstraint=eastwest;rounded=0;shadow=0;html=0;labelBackgroundColor=none;fontColor=#5C5C5C;" parent="MOAt3jkIIzCUCrUjRE3J-27" vertex="1">
          <mxGeometry y="52" width="160" height="26" as="geometry" />
        </mxCell>
        <mxCell id="MOAt3jkIIzCUCrUjRE3J-30" value="prénom : String" style="text;align=left;verticalAlign=top;spacingLeft=4;spacingRight=4;overflow=hidden;rotatable=0;points=[[0,0.5],[1,0.5]];portConstraint=eastwest;rounded=0;shadow=0;html=0;labelBackgroundColor=none;fontColor=#5C5C5C;" parent="MOAt3jkIIzCUCrUjRE3J-27" vertex="1">
          <mxGeometry y="78" width="160" height="24" as="geometry" />
        </mxCell>
        <mxCell id="MOAt3jkIIzCUCrUjRE3J-33" value="" style="endArrow=none;html=1;rounded=0;labelBackgroundColor=none;fontColor=default;strokeColor=#006658;entryX=0;entryY=0.5;entryDx=0;entryDy=0;exitX=1;exitY=0.5;exitDx=0;exitDy=0;" parent="1" source="XN73OdUqLW7g3KTcrhYA-4" target="MOAt3jkIIzCUCrUjRE3J-13" edge="1">
          <mxGeometry width="50" height="50" relative="1" as="geometry">
            <mxPoint x="830" y="828.56" as="sourcePoint" />
            <mxPoint x="1034.9999999999995" y="828.23" as="targetPoint" />
          </mxGeometry>
        </mxCell>
        <mxCell id="EJO8d3wSVcw2AQ6vubc--1" value="Client" style="swimlane;fontStyle=3;align=center;verticalAlign=top;childLayout=stackLayout;horizontal=1;startSize=26;horizontalStack=0;resizeParent=1;resizeLast=0;collapsible=1;marginBottom=0;rounded=0;shadow=0;strokeWidth=1;labelBackgroundColor=none;fillColor=#21C0A5;strokeColor=#006658;fontColor=#5C5C5C;" parent="1" vertex="1">
          <mxGeometry x="640" y="545" width="160" height="85" as="geometry">
            <mxRectangle x="230" y="140" width="160" height="26" as="alternateBounds" />
          </mxGeometry>
        </mxCell>
        <mxCell id="EJO8d3wSVcw2AQ6vubc--2" value="id_client : int" style="text;align=left;verticalAlign=top;spacingLeft=4;spacingRight=4;overflow=hidden;rotatable=0;points=[[0,0.5],[1,0.5]];portConstraint=eastwest;fontStyle=4;labelBackgroundColor=none;fontColor=#5C5C5C;" parent="EJO8d3wSVcw2AQ6vubc--1" vertex="1">
          <mxGeometry y="26" width="160" height="26" as="geometry" />
        </mxCell>
        <mxCell id="EJO8d3wSVcw2AQ6vubc--4" value="adresse : String" style="text;strokeColor=none;fillColor=none;align=left;verticalAlign=top;spacingLeft=4;spacingRight=4;overflow=hidden;rotatable=0;points=[[0,0.5],[1,0.5]];portConstraint=eastwest;whiteSpace=wrap;html=1;labelBackgroundColor=none;fontColor=#5C5C5C;" parent="EJO8d3wSVcw2AQ6vubc--1" vertex="1">
          <mxGeometry y="52" width="160" height="26" as="geometry" />
        </mxCell>
        <mxCell id="GcxmQ4MLgXBW5JH028Ew-1" value="Dossier_médical" style="swimlane;fontStyle=1;align=center;verticalAlign=top;childLayout=stackLayout;horizontal=1;startSize=26;horizontalStack=0;resizeParent=1;resizeParentMax=0;resizeLast=0;collapsible=1;marginBottom=0;whiteSpace=wrap;html=1;labelBackgroundColor=none;fillColor=#21C0A5;strokeColor=#006658;fontColor=#5C5C5C;" parent="1" vertex="1">
          <mxGeometry x="150" y="468" width="220" height="234" as="geometry" />
        </mxCell>
        <mxCell id="GcxmQ4MLgXBW5JH028Ew-2" value="&lt;u&gt;id_dossier_médical : int&lt;/u&gt;" style="text;strokeColor=none;fillColor=none;align=left;verticalAlign=top;spacingLeft=4;spacingRight=4;overflow=hidden;rotatable=0;points=[[0,0.5],[1,0.5]];portConstraint=eastwest;whiteSpace=wrap;html=1;labelBackgroundColor=none;fontColor=#5C5C5C;" parent="GcxmQ4MLgXBW5JH028Ew-1" vertex="1">
          <mxGeometry y="26" width="220" height="26" as="geometry" />
        </mxCell>
        <mxCell id="EJO8d3wSVcw2AQ6vubc--3" value="id_génome : String&lt;div&gt;&lt;br&gt;&lt;/div&gt;" style="text;strokeColor=none;fillColor=none;align=left;verticalAlign=top;spacingLeft=4;spacingRight=4;overflow=hidden;rotatable=0;points=[[0,0.5],[1,0.5]];portConstraint=eastwest;whiteSpace=wrap;html=1;labelBackgroundColor=none;fontColor=#5C5C5C;" parent="GcxmQ4MLgXBW5JH028Ew-1" vertex="1">
          <mxGeometry y="52" width="220" height="26" as="geometry" />
        </mxCell>
        <mxCell id="TOctht0321jSjNGEh-xr-1" value="&lt;div&gt;maladies : types_maladies&lt;span style=&quot;color: rgba(0, 0, 0, 0); font-family: monospace; font-size: 0px; text-wrap: nowrap; background-color: initial;&quot;&gt;%3CmxGraphModel%3E%3Croot%3E%3CmxCell%20id%3D%220%22%2F%3E%3CmxCell%20id%3D%221%22%20parent%3D%220%22%2F%3E%3CmxCell%20id%3D%222%22%20value%3D%22id_g%C3%A9nome%20%3A%20String%26lt%3Bdiv%26gt%3B%26lt%3Bbr%26gt%3B%26lt%3B%2Fdiv%26gt%3B%22%20style%3D%22text%3BstrokeColor%3Dnone%3BfillColor%3Dnone%3Balign%3Dleft%3BverticalAlign%3Dtop%3BspacingLeft%3D4%3BspacingRight%3D4%3Boverflow%3Dhidden%3Brotatable%3D0%3Bpoints%3D%5B%5B0%2C0.5%5D%2C%5B1%2C0.5%5D%5D%3BportConstraint%3Deastwest%3BwhiteSpace%3Dwrap%3Bhtml%3D1%3BlabelBackgroundColor%3Dnone%3BfontColor%3D%235C5C5C%3B%22%20vertex%3D%221%22%20parent%3D%221%22%3E%3CmxGeometry%20x%3D%22150%22%20y%3D%22598%22%20width%3D%22190%22%20height%3D%2226%22%20as%3D%22geometry%22%2F%3E%3C%2FmxCell%3E%3C%2Froot%3E%3C%2FmxGraphModel%3E&amp;nbsp;&lt;/span&gt;&lt;/div&gt;" style="text;strokeColor=none;fillColor=none;align=left;verticalAlign=top;spacingLeft=4;spacingRight=4;overflow=hidden;rotatable=0;points=[[0,0.5],[1,0.5]];portConstraint=eastwest;whiteSpace=wrap;html=1;labelBackgroundColor=none;fontColor=#5C5C5C;" parent="GcxmQ4MLgXBW5JH028Ew-1" vertex="1">
          <mxGeometry y="78" width="220" height="26" as="geometry" />
        </mxCell>
        <mxCell id="TOctht0321jSjNGEh-xr-2" value="allergies : types_allergies" style="text;strokeColor=none;fillColor=none;align=left;verticalAlign=top;spacingLeft=4;spacingRight=4;overflow=hidden;rotatable=0;points=[[0,0.5],[1,0.5]];portConstraint=eastwest;whiteSpace=wrap;html=1;labelBackgroundColor=none;fontColor=#5C5C5C;" parent="GcxmQ4MLgXBW5JH028Ew-1" vertex="1">
          <mxGeometry y="104" width="220" height="26" as="geometry" />
        </mxCell>
        <mxCell id="TOctht0321jSjNGEh-xr-3" value="&lt;div&gt;maladies_parent1 :&amp;nbsp;&lt;span style=&quot;background-color: initial;&quot;&gt;types_maladies&lt;/span&gt;&lt;/div&gt;" style="text;strokeColor=none;fillColor=none;align=left;verticalAlign=top;spacingLeft=4;spacingRight=4;overflow=hidden;rotatable=0;points=[[0,0.5],[1,0.5]];portConstraint=eastwest;whiteSpace=wrap;html=1;labelBackgroundColor=none;fontColor=#5C5C5C;" parent="GcxmQ4MLgXBW5JH028Ew-1" vertex="1">
          <mxGeometry y="130" width="220" height="26" as="geometry" />
        </mxCell>
        <mxCell id="TOctht0321jSjNGEh-xr-5" value="&lt;div&gt;allergies_parent1 :&amp;nbsp;&lt;span style=&quot;background-color: initial;&quot;&gt;types_allergies&lt;/span&gt;&lt;/div&gt;" style="text;strokeColor=none;fillColor=none;align=left;verticalAlign=top;spacingLeft=4;spacingRight=4;overflow=hidden;rotatable=0;points=[[0,0.5],[1,0.5]];portConstraint=eastwest;whiteSpace=wrap;html=1;labelBackgroundColor=none;fontColor=#5C5C5C;" parent="GcxmQ4MLgXBW5JH028Ew-1" vertex="1">
          <mxGeometry y="156" width="220" height="26" as="geometry" />
        </mxCell>
        <mxCell id="TOctht0321jSjNGEh-xr-6" value="&lt;div&gt;maladies_parent2 :&amp;nbsp;&amp;nbsp;&lt;span style=&quot;background-color: initial;&quot;&gt;types_maladies&lt;/span&gt;&lt;/div&gt;" style="text;strokeColor=none;fillColor=none;align=left;verticalAlign=top;spacingLeft=4;spacingRight=4;overflow=hidden;rotatable=0;points=[[0,0.5],[1,0.5]];portConstraint=eastwest;whiteSpace=wrap;html=1;labelBackgroundColor=none;fontColor=#5C5C5C;" parent="GcxmQ4MLgXBW5JH028Ew-1" vertex="1">
          <mxGeometry y="182" width="220" height="26" as="geometry" />
        </mxCell>
        <mxCell id="TOctht0321jSjNGEh-xr-7" value="&lt;div&gt;allergies_parent2 :&amp;nbsp;&lt;span style=&quot;background-color: initial;&quot;&gt;types_allergies&lt;/span&gt;&lt;/div&gt;" style="text;strokeColor=none;fillColor=none;align=left;verticalAlign=top;spacingLeft=4;spacingRight=4;overflow=hidden;rotatable=0;points=[[0,0.5],[1,0.5]];portConstraint=eastwest;whiteSpace=wrap;html=1;labelBackgroundColor=none;fontColor=#5C5C5C;" parent="GcxmQ4MLgXBW5JH028Ew-1" vertex="1">
          <mxGeometry y="208" width="220" height="26" as="geometry" />
        </mxCell>
        <mxCell id="71WDJMifWowYjbtXkKwY-1" value="&lt;div&gt;Commande_client&lt;/div&gt;" style="swimlane;fontStyle=1;align=center;verticalAlign=top;childLayout=stackLayout;horizontal=1;startSize=26;horizontalStack=0;resizeParent=1;resizeParentMax=0;resizeLast=0;collapsible=1;marginBottom=0;whiteSpace=wrap;html=1;labelBackgroundColor=none;fillColor=#21C0A5;strokeColor=#006658;fontColor=#5C5C5C;" parent="1" vertex="1">
          <mxGeometry x="1025" y="560" width="160" height="104" as="geometry" />
        </mxCell>
        <mxCell id="71WDJMifWowYjbtXkKwY-2" value="&lt;u&gt;id_commande : int&lt;/u&gt;" style="text;strokeColor=none;fillColor=none;align=left;verticalAlign=top;spacingLeft=4;spacingRight=4;overflow=hidden;rotatable=0;points=[[0,0.5],[1,0.5]];portConstraint=eastwest;whiteSpace=wrap;html=1;labelBackgroundColor=none;fontColor=#5C5C5C;" parent="71WDJMifWowYjbtXkKwY-1" vertex="1">
          <mxGeometry y="26" width="160" height="26" as="geometry" />
        </mxCell>
        <mxCell id="71WDJMifWowYjbtXkKwY-3" value="adresse_client:&amp;nbsp;&lt;span style=&quot;text-wrap: nowrap;&quot;&gt;String&lt;/span&gt;" style="text;strokeColor=none;fillColor=none;align=left;verticalAlign=top;spacingLeft=4;spacingRight=4;overflow=hidden;rotatable=0;points=[[0,0.5],[1,0.5]];portConstraint=eastwest;whiteSpace=wrap;html=1;labelBackgroundColor=none;fontColor=#5C5C5C;" parent="71WDJMifWowYjbtXkKwY-1" vertex="1">
          <mxGeometry y="52" width="160" height="26" as="geometry" />
        </mxCell>
        <mxCell id="uFCYOEKillzVFu1qlQgB-1" value="date_commande : Date" style="text;strokeColor=none;fillColor=none;align=left;verticalAlign=top;spacingLeft=4;spacingRight=4;overflow=hidden;rotatable=0;points=[[0,0.5],[1,0.5]];portConstraint=eastwest;whiteSpace=wrap;html=1;labelBackgroundColor=none;fontColor=#5C5C5C;" parent="71WDJMifWowYjbtXkKwY-1" vertex="1">
          <mxGeometry y="78" width="160" height="26" as="geometry" />
        </mxCell>
        <mxCell id="XN73OdUqLW7g3KTcrhYA-1" value="Vaccin" style="swimlane;fontStyle=1;align=center;verticalAlign=top;childLayout=stackLayout;horizontal=1;startSize=26;horizontalStack=0;resizeParent=1;resizeParentMax=0;resizeLast=0;collapsible=1;marginBottom=0;whiteSpace=wrap;html=1;labelBackgroundColor=none;fillColor=#21C0A5;strokeColor=#006658;fontColor=#5C5C5C;" parent="1" vertex="1">
          <mxGeometry x="625" y="800" width="190" height="160" as="geometry" />
        </mxCell>
        <mxCell id="XN73OdUqLW7g3KTcrhYA-2" value="&lt;u&gt;id_vaccin : int&lt;/u&gt;" style="text;strokeColor=none;fillColor=none;align=left;verticalAlign=top;spacingLeft=4;spacingRight=4;overflow=hidden;rotatable=0;points=[[0,0.5],[1,0.5]];portConstraint=eastwest;whiteSpace=wrap;html=1;labelBackgroundColor=none;fontColor=#5C5C5C;" parent="XN73OdUqLW7g3KTcrhYA-1" vertex="1">
          <mxGeometry y="26" width="190" height="26" as="geometry" />
        </mxCell>
        <mxCell id="XN73OdUqLW7g3KTcrhYA-3" value="nom:&amp;nbsp;&lt;span style=&quot;text-wrap: nowrap;&quot;&gt;String&lt;/span&gt;" style="text;strokeColor=none;fillColor=none;align=left;verticalAlign=top;spacingLeft=4;spacingRight=4;overflow=hidden;rotatable=0;points=[[0,0.5],[1,0.5]];portConstraint=eastwest;whiteSpace=wrap;html=1;labelBackgroundColor=none;fontColor=#5C5C5C;" parent="XN73OdUqLW7g3KTcrhYA-1" vertex="1">
          <mxGeometry y="52" width="190" height="26" as="geometry" />
        </mxCell>
        <mxCell id="XN73OdUqLW7g3KTcrhYA-4" value="prix: int" style="text;strokeColor=none;fillColor=none;align=left;verticalAlign=top;spacingLeft=4;spacingRight=4;overflow=hidden;rotatable=0;points=[[0,0.5],[1,0.5]];portConstraint=eastwest;whiteSpace=wrap;html=1;labelBackgroundColor=none;fontColor=#5C5C5C;" parent="XN73OdUqLW7g3KTcrhYA-1" vertex="1">
          <mxGeometry y="78" width="190" height="26" as="geometry" />
        </mxCell>
        <mxCell id="XN73OdUqLW7g3KTcrhYA-5" value="Type :&amp;nbsp;&amp;nbsp;&lt;span style=&quot;text-wrap: nowrap;&quot;&gt;String&lt;/span&gt;" style="text;strokeColor=none;fillColor=none;align=left;verticalAlign=top;spacingLeft=4;spacingRight=4;overflow=hidden;rotatable=0;points=[[0,0.5],[1,0.5]];portConstraint=eastwest;whiteSpace=wrap;html=1;labelBackgroundColor=none;fontColor=#5C5C5C;" parent="XN73OdUqLW7g3KTcrhYA-1" vertex="1">
          <mxGeometry y="104" width="190" height="26" as="geometry" />
        </mxCell>
        <mxCell id="BlLhq0BqILPrwAbl8OuN-8" value="&lt;font color=&quot;#5c5c5c&quot;&gt;&amp;nbsp;Dosage : Float&lt;/font&gt;" style="text;whiteSpace=wrap;html=1;" parent="XN73OdUqLW7g3KTcrhYA-1" vertex="1">
          <mxGeometry y="130" width="190" height="30" as="geometry" />
        </mxCell>
        <mxCell id="1l91-7HTMdYBhjDLCAlY-1" value="Fournisseur" style="swimlane;fontStyle=1;align=center;verticalAlign=top;childLayout=stackLayout;horizontal=1;startSize=26;horizontalStack=0;resizeParent=1;resizeLast=0;collapsible=1;marginBottom=0;rounded=0;shadow=0;strokeWidth=1;labelBackgroundColor=none;fillColor=#21C0A5;strokeColor=#006658;fontColor=#5C5C5C;" parent="1" vertex="1">
          <mxGeometry x="160" y="1024" width="160" height="113" as="geometry">
            <mxRectangle x="130" y="380" width="160" height="26" as="alternateBounds" />
          </mxGeometry>
        </mxCell>
        <mxCell id="1l91-7HTMdYBhjDLCAlY-2" value="id_fournisseur: int" style="text;align=left;verticalAlign=top;spacingLeft=4;spacingRight=4;overflow=hidden;rotatable=0;points=[[0,0.5],[1,0.5]];portConstraint=eastwest;fontStyle=4;labelBackgroundColor=none;fontColor=#5C5C5C;" parent="1l91-7HTMdYBhjDLCAlY-1" vertex="1">
          <mxGeometry y="26" width="160" height="26" as="geometry" />
        </mxCell>
        <mxCell id="1l91-7HTMdYBhjDLCAlY-3" value="nom : String" style="text;align=left;verticalAlign=top;spacingLeft=4;spacingRight=4;overflow=hidden;rotatable=0;points=[[0,0.5],[1,0.5]];portConstraint=eastwest;fontStyle=0;labelBackgroundColor=none;fontColor=#5C5C5C;" parent="1l91-7HTMdYBhjDLCAlY-1" vertex="1">
          <mxGeometry y="52" width="160" height="28" as="geometry" />
        </mxCell>
        <mxCell id="1l91-7HTMdYBhjDLCAlY-4" value="adresse : String" style="text;align=left;verticalAlign=top;spacingLeft=4;spacingRight=4;overflow=hidden;rotatable=0;points=[[0,0.5],[1,0.5]];portConstraint=eastwest;labelBackgroundColor=none;fontColor=#5C5C5C;" parent="1l91-7HTMdYBhjDLCAlY-1" vertex="1">
          <mxGeometry y="80" width="160" height="24" as="geometry" />
        </mxCell>
        <mxCell id="1l91-7HTMdYBhjDLCAlY-6" value="Stock" style="swimlane;fontStyle=1;align=center;verticalAlign=top;childLayout=stackLayout;horizontal=1;startSize=26;horizontalStack=0;resizeParent=1;resizeParentMax=0;resizeLast=0;collapsible=1;marginBottom=0;whiteSpace=wrap;html=1;labelBackgroundColor=none;fillColor=#21C0A5;strokeColor=#006658;fontColor=#5C5C5C;" parent="1" vertex="1">
          <mxGeometry x="940" y="1050" width="160" height="78" as="geometry" />
        </mxCell>
        <mxCell id="1l91-7HTMdYBhjDLCAlY-7" value="&lt;u&gt;id_stock : int&lt;/u&gt;" style="text;strokeColor=none;fillColor=none;align=left;verticalAlign=top;spacingLeft=4;spacingRight=4;overflow=hidden;rotatable=0;points=[[0,0.5],[1,0.5]];portConstraint=eastwest;whiteSpace=wrap;html=1;labelBackgroundColor=none;fontColor=#5C5C5C;" parent="1l91-7HTMdYBhjDLCAlY-6" vertex="1">
          <mxGeometry y="26" width="160" height="26" as="geometry" />
        </mxCell>
        <mxCell id="1l91-7HTMdYBhjDLCAlY-8" value="stock :&amp;nbsp;&lt;span style=&quot;text-wrap: nowrap;&quot;&gt;String&lt;/span&gt;" style="text;strokeColor=none;fillColor=none;align=left;verticalAlign=top;spacingLeft=4;spacingRight=4;overflow=hidden;rotatable=0;points=[[0,0.5],[1,0.5]];portConstraint=eastwest;whiteSpace=wrap;html=1;labelBackgroundColor=none;fontColor=#5C5C5C;" parent="1l91-7HTMdYBhjDLCAlY-6" vertex="1">
          <mxGeometry y="52" width="160" height="26" as="geometry" />
        </mxCell>
        <mxCell id="1l91-7HTMdYBhjDLCAlY-10" value="Composant" style="swimlane;fontStyle=1;align=center;verticalAlign=top;childLayout=stackLayout;horizontal=1;startSize=26;horizontalStack=0;resizeParent=1;resizeLast=0;collapsible=1;marginBottom=0;rounded=0;shadow=0;strokeWidth=1;labelBackgroundColor=none;fillColor=#21C0A5;strokeColor=#006658;fontColor=#5C5C5C;" parent="1" vertex="1">
          <mxGeometry x="640" y="1030" width="160" height="80" as="geometry">
            <mxRectangle x="130" y="380" width="160" height="26" as="alternateBounds" />
          </mxGeometry>
        </mxCell>
        <mxCell id="1l91-7HTMdYBhjDLCAlY-11" value="id_composant: int" style="text;align=left;verticalAlign=top;spacingLeft=4;spacingRight=4;overflow=hidden;rotatable=0;points=[[0,0.5],[1,0.5]];portConstraint=eastwest;fontStyle=4;labelBackgroundColor=none;fontColor=#5C5C5C;" parent="1l91-7HTMdYBhjDLCAlY-10" vertex="1">
          <mxGeometry y="26" width="160" height="26" as="geometry" />
        </mxCell>
        <mxCell id="1l91-7HTMdYBhjDLCAlY-12" value="formule : String" style="text;align=left;verticalAlign=top;spacingLeft=4;spacingRight=4;overflow=hidden;rotatable=0;points=[[0,0.5],[1,0.5]];portConstraint=eastwest;fontStyle=0;labelBackgroundColor=none;fontColor=#5C5C5C;" parent="1l91-7HTMdYBhjDLCAlY-10" vertex="1">
          <mxGeometry y="52" width="160" height="18" as="geometry" />
        </mxCell>
        <mxCell id="1l91-7HTMdYBhjDLCAlY-14" value="Batiment" style="swimlane;fontStyle=1;align=center;verticalAlign=top;childLayout=stackLayout;horizontal=1;startSize=26;horizontalStack=0;resizeParent=1;resizeParentMax=0;resizeLast=0;collapsible=1;marginBottom=0;whiteSpace=wrap;html=1;labelBackgroundColor=none;fillColor=#21C0A5;strokeColor=#006658;fontColor=#5C5C5C;" parent="1" vertex="1">
          <mxGeometry x="1240" y="1050" width="160" height="80" as="geometry" />
        </mxCell>
        <mxCell id="1l91-7HTMdYBhjDLCAlY-15" value="&lt;u&gt;id_batiments : int&lt;/u&gt;" style="text;strokeColor=none;fillColor=none;align=left;verticalAlign=top;spacingLeft=4;spacingRight=4;overflow=hidden;rotatable=0;points=[[0,0.5],[1,0.5]];portConstraint=eastwest;whiteSpace=wrap;html=1;labelBackgroundColor=none;fontColor=#5C5C5C;" parent="1l91-7HTMdYBhjDLCAlY-14" vertex="1">
          <mxGeometry y="26" width="160" height="26" as="geometry" />
        </mxCell>
        <mxCell id="1l91-7HTMdYBhjDLCAlY-16" value="adresse : String" style="text;align=left;verticalAlign=top;spacingLeft=4;spacingRight=4;overflow=hidden;rotatable=0;points=[[0,0.5],[1,0.5]];portConstraint=eastwest;fontStyle=0;labelBackgroundColor=none;fontColor=#5C5C5C;" parent="1l91-7HTMdYBhjDLCAlY-14" vertex="1">
          <mxGeometry y="52" width="160" height="28" as="geometry" />
        </mxCell>
        <mxCell id="1l91-7HTMdYBhjDLCAlY-18" value="Machine" style="swimlane;fontStyle=1;align=center;verticalAlign=top;childLayout=stackLayout;horizontal=1;startSize=26;horizontalStack=0;resizeParent=1;resizeParentMax=0;resizeLast=0;collapsible=1;marginBottom=0;whiteSpace=wrap;html=1;labelBackgroundColor=none;fillColor=#21C0A5;strokeColor=#006658;fontColor=#5C5C5C;" parent="1" vertex="1">
          <mxGeometry x="1240" y="920" width="160" height="52" as="geometry" />
        </mxCell>
        <mxCell id="1l91-7HTMdYBhjDLCAlY-19" value="&lt;u&gt;id_machine : int&lt;/u&gt;" style="text;strokeColor=none;fillColor=none;align=left;verticalAlign=top;spacingLeft=4;spacingRight=4;overflow=hidden;rotatable=0;points=[[0,0.5],[1,0.5]];portConstraint=eastwest;whiteSpace=wrap;html=1;labelBackgroundColor=none;fontColor=#5C5C5C;" parent="1l91-7HTMdYBhjDLCAlY-18" vertex="1">
          <mxGeometry y="26" width="160" height="26" as="geometry" />
        </mxCell>
        <mxCell id="1l91-7HTMdYBhjDLCAlY-21" value="&lt;div&gt;Commande_composant&lt;/div&gt;" style="swimlane;fontStyle=1;align=center;verticalAlign=top;childLayout=stackLayout;horizontal=1;startSize=26;horizontalStack=0;resizeParent=1;resizeParentMax=0;resizeLast=0;collapsible=1;marginBottom=0;whiteSpace=wrap;html=1;labelBackgroundColor=none;fillColor=#21C0A5;strokeColor=#006658;fontColor=#5C5C5C;" parent="1" vertex="1">
          <mxGeometry x="405" y="890" width="150" height="78" as="geometry" />
        </mxCell>
        <mxCell id="1l91-7HTMdYBhjDLCAlY-22" value="&lt;u&gt;id_commande : int&lt;/u&gt;" style="text;strokeColor=none;fillColor=none;align=left;verticalAlign=top;spacingLeft=4;spacingRight=4;overflow=hidden;rotatable=0;points=[[0,0.5],[1,0.5]];portConstraint=eastwest;whiteSpace=wrap;html=1;labelBackgroundColor=none;fontColor=#5C5C5C;" parent="1l91-7HTMdYBhjDLCAlY-21" vertex="1">
          <mxGeometry y="26" width="150" height="26" as="geometry" />
        </mxCell>
        <mxCell id="1l91-7HTMdYBhjDLCAlY-23" value="&lt;div&gt;quantite :&amp;nbsp;&lt;span style=&quot;text-wrap: nowrap; background-color: initial;&quot;&gt;String&lt;/span&gt;&lt;/div&gt;" style="text;strokeColor=none;fillColor=none;align=left;verticalAlign=top;spacingLeft=4;spacingRight=4;overflow=hidden;rotatable=0;points=[[0,0.5],[1,0.5]];portConstraint=eastwest;whiteSpace=wrap;html=1;labelBackgroundColor=none;fontColor=#5C5C5C;" parent="1l91-7HTMdYBhjDLCAlY-21" vertex="1">
          <mxGeometry y="52" width="150" height="26" as="geometry" />
        </mxCell>
        <mxCell id="1l91-7HTMdYBhjDLCAlY-25" value="" style="endArrow=none;html=1;rounded=0;labelBackgroundColor=none;fontColor=default;strokeColor=#006658;entryX=-0.01;entryY=-0.236;entryDx=0;entryDy=0;entryPerimeter=0;" parent="1" target="1l91-7HTMdYBhjDLCAlY-16" edge="1">
          <mxGeometry width="50" height="50" relative="1" as="geometry">
            <mxPoint x="1100" y="1095" as="sourcePoint" />
            <mxPoint x="1240" y="1110" as="targetPoint" />
          </mxGeometry>
        </mxCell>
        <mxCell id="1l91-7HTMdYBhjDLCAlY-27" value="" style="endArrow=none;html=1;rounded=0;entryX=0;entryY=0.5;entryDx=0;entryDy=0;labelBackgroundColor=none;fontColor=default;exitX=1;exitY=0.5;exitDx=0;exitDy=0;strokeColor=#006658;" parent="1" source="1l91-7HTMdYBhjDLCAlY-3" target="1l91-7HTMdYBhjDLCAlY-12" edge="1">
          <mxGeometry width="50" height="50" relative="1" as="geometry">
            <mxPoint x="555" y="1106" as="sourcePoint" />
            <mxPoint x="345" y="1108" as="targetPoint" />
          </mxGeometry>
        </mxCell>
        <mxCell id="1l91-7HTMdYBhjDLCAlY-34" value="" style="endArrow=none;html=1;rounded=0;fontColor=default;entryX=0.818;entryY=-0.08;entryDx=0;entryDy=0;entryPerimeter=0;labelBackgroundColor=none;strokeColor=#006658;" parent="1" target="QdTTGa0BbfYodNwyHoYE-82" edge="1">
          <mxGeometry width="50" height="50" relative="1" as="geometry">
            <mxPoint x="800" y="1090" as="sourcePoint" />
            <mxPoint x="930" y="1010" as="targetPoint" />
          </mxGeometry>
        </mxCell>
        <mxCell id="1l91-7HTMdYBhjDLCAlY-35" value="" style="endArrow=none;html=1;rounded=0;entryX=0.5;entryY=1;entryDx=0;entryDy=0;exitX=0.5;exitY=0;exitDx=0;exitDy=0;labelBackgroundColor=none;fontColor=default;strokeColor=#006658;" parent="1" source="1l91-7HTMdYBhjDLCAlY-10" target="XN73OdUqLW7g3KTcrhYA-1" edge="1">
          <mxGeometry width="50" height="50" relative="1" as="geometry">
            <mxPoint x="650" y="930" as="sourcePoint" />
            <mxPoint x="700" y="880" as="targetPoint" />
          </mxGeometry>
        </mxCell>
        <mxCell id="1l91-7HTMdYBhjDLCAlY-37" value="" style="endArrow=none;html=1;rounded=0;exitX=0.499;exitY=1.05;exitDx=0;exitDy=0;labelBackgroundColor=none;fontColor=default;strokeColor=#006658;entryX=0.5;entryY=0;entryDx=0;entryDy=0;exitPerimeter=0;" parent="1" source="1l91-7HTMdYBhjDLCAlY-19" target="1l91-7HTMdYBhjDLCAlY-14" edge="1">
          <mxGeometry width="50" height="50" relative="1" as="geometry">
            <mxPoint x="650" y="950" as="sourcePoint" />
            <mxPoint x="1400" y="1112" as="targetPoint" />
            <Array as="points" />
          </mxGeometry>
        </mxCell>
        <mxCell id="QdTTGa0BbfYodNwyHoYE-4" value="1..*" style="text;html=1;align=center;verticalAlign=middle;whiteSpace=wrap;rounded=0;labelBackgroundColor=none;fontColor=#5C5C5C;" parent="1" vertex="1">
          <mxGeometry x="660" y="1000" width="60" height="30" as="geometry" />
        </mxCell>
        <mxCell id="QdTTGa0BbfYodNwyHoYE-5" value="1..1" style="text;html=1;align=center;verticalAlign=middle;whiteSpace=wrap;rounded=0;labelBackgroundColor=none;fontColor=#5C5C5C;" parent="1" vertex="1">
          <mxGeometry x="660" y="960" width="60" height="30" as="geometry" />
        </mxCell>
        <mxCell id="QdTTGa0BbfYodNwyHoYE-6" value="1..*" style="text;html=1;align=center;verticalAlign=middle;whiteSpace=wrap;rounded=0;labelBackgroundColor=none;fontColor=#5C5C5C;" parent="1" vertex="1">
          <mxGeometry x="967.5" y="560" width="60" height="30" as="geometry" />
        </mxCell>
        <mxCell id="QdTTGa0BbfYodNwyHoYE-8" value="1..1" style="text;html=1;align=center;verticalAlign=middle;whiteSpace=wrap;rounded=0;labelBackgroundColor=none;fontColor=#5C5C5C;" parent="1" vertex="1">
          <mxGeometry x="797" y="570" width="60" height="30" as="geometry" />
        </mxCell>
        <mxCell id="QdTTGa0BbfYodNwyHoYE-17" value="envoyé à" style="text;html=1;align=center;verticalAlign=middle;whiteSpace=wrap;rounded=0;labelBackgroundColor=none;fontColor=#5C5C5C;" parent="1" vertex="1">
          <mxGeometry x="970" y="615" width="60" height="30" as="geometry" />
        </mxCell>
        <mxCell id="QdTTGa0BbfYodNwyHoYE-68" value="&lt;div style=&quot;text-align: center;&quot;&gt;&lt;span style=&quot;background-color: initial;&quot;&gt;contient&lt;/span&gt;&lt;/div&gt;" style="text;whiteSpace=wrap;html=1;labelBackgroundColor=none;fontColor=#5C5C5C;" parent="1" vertex="1">
          <mxGeometry x="725" y="962" width="45" height="38" as="geometry" />
        </mxCell>
        <mxCell id="QdTTGa0BbfYodNwyHoYE-69" value="&lt;div style=&quot;text-align: center;&quot;&gt;&lt;span style=&quot;background-color: initial;&quot;&gt;fait partie&lt;/span&gt;&lt;/div&gt;" style="text;whiteSpace=wrap;html=1;labelBackgroundColor=none;fontColor=#5C5C5C;" parent="1" vertex="1">
          <mxGeometry x="725" y="1000" width="100" height="40" as="geometry" />
        </mxCell>
        <mxCell id="QdTTGa0BbfYodNwyHoYE-70" value="&lt;div style=&quot;text-align: center;&quot;&gt;&lt;span style=&quot;background-color: initial;&quot;&gt;Envoie&lt;/span&gt;&lt;/div&gt;" style="text;whiteSpace=wrap;html=1;labelBackgroundColor=none;fontColor=#5C5C5C;" parent="1" vertex="1">
          <mxGeometry x="330" y="1060" width="50" height="30" as="geometry" />
        </mxCell>
        <mxCell id="QdTTGa0BbfYodNwyHoYE-72" value="&lt;span style=&quot;color: rgb(0, 0, 0); font-family: Helvetica; font-size: 12px; font-style: normal; font-variant-ligatures: normal; font-variant-caps: normal; font-weight: 400; letter-spacing: normal; orphans: 2; text-align: center; text-indent: 0px; text-transform: none; widows: 2; word-spacing: 0px; -webkit-text-stroke-width: 0px; white-space: normal; background-color: rgb(251, 251, 251); text-decoration-thickness: initial; text-decoration-style: initial; text-decoration-color: initial; display: inline !important; float: none;&quot;&gt;1..*&lt;/span&gt;" style="text;whiteSpace=wrap;html=1;labelBackgroundColor=none;fontColor=#5C5C5C;" parent="1" vertex="1">
          <mxGeometry x="600" y="1093" width="50" height="40" as="geometry" />
        </mxCell>
        <mxCell id="QdTTGa0BbfYodNwyHoYE-73" value="&lt;div style=&quot;text-align: center;&quot;&gt;&lt;span style=&quot;background-color: initial;&quot;&gt;est envoyé par&lt;/span&gt;&lt;/div&gt;" style="text;whiteSpace=wrap;html=1;labelBackgroundColor=none;fontColor=#5C5C5C;" parent="1" vertex="1">
          <mxGeometry x="555" y="1060" width="130" height="40" as="geometry" />
        </mxCell>
        <mxCell id="QdTTGa0BbfYodNwyHoYE-74" value="&lt;div style=&quot;text-align: center;&quot;&gt;&lt;span style=&quot;background-color: initial;&quot;&gt;1..1&lt;/span&gt;&lt;/div&gt;" style="text;whiteSpace=wrap;html=1;labelBackgroundColor=none;fontColor=#5C5C5C;" parent="1" vertex="1">
          <mxGeometry x="330" y="1095.5" width="30" height="25" as="geometry" />
        </mxCell>
        <mxCell id="QdTTGa0BbfYodNwyHoYE-78" value="" style="endArrow=none;html=1;rounded=0;entryX=0.5;entryY=1;entryDx=0;entryDy=0;dashed=1;labelBackgroundColor=none;fontColor=default;strokeColor=#006658;" parent="1" target="1l91-7HTMdYBhjDLCAlY-21" edge="1">
          <mxGeometry width="50" height="50" relative="1" as="geometry">
            <mxPoint x="480" y="1090" as="sourcePoint" />
            <mxPoint x="89.21999999999974" y="874.0039999999999" as="targetPoint" />
          </mxGeometry>
        </mxCell>
        <mxCell id="QdTTGa0BbfYodNwyHoYE-79" value="&lt;div style=&quot;text-align: center;&quot;&gt;&lt;span style=&quot;background-color: initial;&quot;&gt;contient&lt;/span&gt;&lt;/div&gt;" style="text;whiteSpace=wrap;html=1;labelBackgroundColor=none;fontColor=#5C5C5C;" parent="1" vertex="1">
          <mxGeometry x="885" y="1057" width="50" height="30" as="geometry" />
        </mxCell>
        <mxCell id="QdTTGa0BbfYodNwyHoYE-80" value="&lt;span style=&quot;color: rgb(0, 0, 0); font-family: Helvetica; font-size: 12px; font-style: normal; font-variant-ligatures: normal; font-variant-caps: normal; font-weight: 400; letter-spacing: normal; orphans: 2; text-align: center; text-indent: 0px; text-transform: none; widows: 2; word-spacing: 0px; -webkit-text-stroke-width: 0px; white-space: normal; background-color: rgb(251, 251, 251); text-decoration-thickness: initial; text-decoration-style: initial; text-decoration-color: initial; display: inline !important; float: none;&quot;&gt;1..*&lt;/span&gt;" style="text;whiteSpace=wrap;html=1;labelBackgroundColor=none;fontColor=#5C5C5C;" parent="1" vertex="1">
          <mxGeometry x="810" y="1093" width="50" height="40" as="geometry" />
        </mxCell>
        <mxCell id="QdTTGa0BbfYodNwyHoYE-81" value="&lt;div style=&quot;text-align: center;&quot;&gt;est stocké&lt;/div&gt;" style="text;whiteSpace=wrap;html=1;labelBackgroundColor=none;fontColor=#5C5C5C;" parent="1" vertex="1">
          <mxGeometry x="805" y="1054" width="90" height="26" as="geometry" />
        </mxCell>
        <mxCell id="QdTTGa0BbfYodNwyHoYE-82" value="&lt;div style=&quot;text-align: center;&quot;&gt;&lt;span style=&quot;background-color: initial;&quot;&gt;1..1&lt;/span&gt;&lt;/div&gt;" style="text;whiteSpace=wrap;html=1;labelBackgroundColor=none;fontColor=#5C5C5C;" parent="1" vertex="1">
          <mxGeometry x="900" y="1093" width="50" height="40" as="geometry" />
        </mxCell>
        <mxCell id="QdTTGa0BbfYodNwyHoYE-83" value="&lt;div style=&quot;text-align: center;&quot;&gt;&lt;span style=&quot;background-color: initial;&quot;&gt;contient&lt;/span&gt;&lt;/div&gt;" style="text;whiteSpace=wrap;html=1;labelBackgroundColor=none;fontColor=#5C5C5C;" parent="1" vertex="1">
          <mxGeometry x="1270" y="1023.5" width="50" height="28" as="geometry" />
        </mxCell>
        <mxCell id="QdTTGa0BbfYodNwyHoYE-84" value="&lt;span style=&quot;color: rgb(0, 0, 0); font-family: Helvetica; font-size: 12px; font-style: normal; font-variant-ligatures: normal; font-variant-caps: normal; font-weight: 400; letter-spacing: normal; orphans: 2; text-align: center; text-indent: 0px; text-transform: none; widows: 2; word-spacing: 0px; -webkit-text-stroke-width: 0px; white-space: normal; background-color: rgb(251, 251, 251); text-decoration-thickness: initial; text-decoration-style: initial; text-decoration-color: initial; display: inline !important; float: none;&quot;&gt;1..*&lt;/span&gt;" style="text;whiteSpace=wrap;html=1;labelBackgroundColor=none;fontColor=#5C5C5C;" parent="1" vertex="1">
          <mxGeometry x="1320" y="1025" width="30" height="25" as="geometry" />
        </mxCell>
        <mxCell id="QdTTGa0BbfYodNwyHoYE-86" value="&lt;span style=&quot;color: rgb(0, 0, 0); font-family: Helvetica; font-size: 12px; font-style: normal; font-variant-ligatures: normal; font-variant-caps: normal; font-weight: 400; letter-spacing: normal; orphans: 2; text-align: center; text-indent: 0px; text-transform: none; widows: 2; word-spacing: 0px; -webkit-text-stroke-width: 0px; white-space: normal; background-color: rgb(251, 251, 251); text-decoration-thickness: initial; text-decoration-style: initial; text-decoration-color: initial; display: inline !important; float: none;&quot;&gt;1..1&lt;/span&gt;" style="text;whiteSpace=wrap;html=1;labelBackgroundColor=none;fontColor=#5C5C5C;" parent="1" vertex="1">
          <mxGeometry x="1290" y="973" width="30" height="30" as="geometry" />
        </mxCell>
        <mxCell id="QdTTGa0BbfYodNwyHoYE-87" value="&lt;div style=&quot;text-align: center;&quot;&gt;&lt;span style=&quot;background-color: initial;&quot;&gt;est installé&lt;/span&gt;&lt;/div&gt;" style="text;whiteSpace=wrap;html=1;labelBackgroundColor=none;fontColor=#5C5C5C;" parent="1" vertex="1">
          <mxGeometry x="1320" y="973" width="70" height="27" as="geometry" />
        </mxCell>
        <mxCell id="QdTTGa0BbfYodNwyHoYE-88" value="&lt;div style=&quot;text-align: center;&quot;&gt;&lt;span style=&quot;background-color: initial;&quot;&gt;est stocké&lt;/span&gt;&lt;/div&gt;" style="text;whiteSpace=wrap;html=1;labelBackgroundColor=none;fontColor=#5C5C5C;" parent="1" vertex="1">
          <mxGeometry x="1100" y="1063" width="65" height="24" as="geometry" />
        </mxCell>
        <mxCell id="QdTTGa0BbfYodNwyHoYE-89" value="&lt;div style=&quot;text-align: center;&quot;&gt;&lt;span style=&quot;background-color: initial;&quot;&gt;stock&lt;/span&gt;&lt;/div&gt;" style="text;whiteSpace=wrap;html=1;labelBackgroundColor=none;fontColor=#5C5C5C;" parent="1" vertex="1">
          <mxGeometry x="1185" y="1062" width="50" height="43" as="geometry" />
        </mxCell>
        <mxCell id="QdTTGa0BbfYodNwyHoYE-91" value="&lt;span style=&quot;color: rgb(0, 0, 0); font-family: Helvetica; font-size: 12px; font-style: normal; font-variant-ligatures: normal; font-variant-caps: normal; font-weight: 400; letter-spacing: normal; orphans: 2; text-align: center; text-indent: 0px; text-transform: none; widows: 2; word-spacing: 0px; -webkit-text-stroke-width: 0px; white-space: normal; background-color: rgb(251, 251, 251); text-decoration-thickness: initial; text-decoration-style: initial; text-decoration-color: initial; display: inline !important; float: none;&quot;&gt;1..*&lt;/span&gt;" style="text;whiteSpace=wrap;html=1;labelBackgroundColor=none;fontColor=#5C5C5C;" parent="1" vertex="1">
          <mxGeometry x="1105" y="1097" width="25" height="28" as="geometry" />
        </mxCell>
        <mxCell id="froUJ5dCGlKvljRvfJgS-4" value="" style="endArrow=none;html=1;rounded=0;exitX=-0.035;exitY=0.16;exitDx=0;exitDy=0;labelBackgroundColor=none;fontColor=default;strokeColor=#006658;exitPerimeter=0;entryX=0;entryY=0.756;entryDx=0;entryDy=0;entryPerimeter=0;" parent="1" source="0koiEgEIGyU_yhXwSHFO-21" target="71WDJMifWowYjbtXkKwY-2" edge="1">
          <mxGeometry width="50" height="50" relative="1" as="geometry">
            <mxPoint x="820.56" y="658.29" as="sourcePoint" />
            <mxPoint x="1020" y="605" as="targetPoint" />
          </mxGeometry>
        </mxCell>
        <mxCell id="0koiEgEIGyU_yhXwSHFO-21" value="commande" style="text;html=1;align=center;verticalAlign=middle;resizable=0;points=[];autosize=1;strokeColor=none;fillColor=none;labelBackgroundColor=none;fontColor=#5C5C5C;" parent="1" vertex="1">
          <mxGeometry x="802" y="600" width="80" height="30" as="geometry" />
        </mxCell>
        <mxCell id="BlLhq0BqILPrwAbl8OuN-1" value="" style="endArrow=classic;html=1;rounded=0;exitX=1;exitY=0.5;exitDx=0;exitDy=0;entryX=0;entryY=0.5;entryDx=0;entryDy=0;strokeColor=#006658;" parent="1" source="MOAt3jkIIzCUCrUjRE3J-7" target="lsndeNtp98q-qGWLqUXU-8" edge="1">
          <mxGeometry width="50" height="50" relative="1" as="geometry">
            <mxPoint x="410" y="201.23000000000002" as="sourcePoint" />
            <mxPoint x="605" y="226" as="targetPoint" />
          </mxGeometry>
        </mxCell>
        <mxCell id="BlLhq0BqILPrwAbl8OuN-2" value="" style="endArrow=classic;html=1;rounded=0;exitX=0.5;exitY=1;exitDx=0;exitDy=0;entryX=0;entryY=0.5;entryDx=0;entryDy=0;strokeColor=#006658;" parent="1" source="MOAt3jkIIzCUCrUjRE3J-23" target="lsndeNtp98q-qGWLqUXU-7" edge="1">
          <mxGeometry width="50" height="50" relative="1" as="geometry">
            <mxPoint x="812.5" y="190" as="sourcePoint" />
            <mxPoint x="747.5" y="90" as="targetPoint" />
          </mxGeometry>
        </mxCell>
        <mxCell id="BlLhq0BqILPrwAbl8OuN-3" value="" style="endArrow=classic;html=1;rounded=0;entryX=0.5;entryY=0;entryDx=0;entryDy=0;strokeColor=#006658;" parent="1" source="MOAt3jkIIzCUCrUjRE3J-17" target="lsndeNtp98q-qGWLqUXU-6" edge="1">
          <mxGeometry width="50" height="50" relative="1" as="geometry">
            <mxPoint x="883.06" y="96.2840000000001" as="sourcePoint" />
            <mxPoint x="815" y="169" as="targetPoint" />
            <Array as="points" />
          </mxGeometry>
        </mxCell>
        <mxCell id="BlLhq0BqILPrwAbl8OuN-4" value="" style="endArrow=classic;html=1;rounded=0;exitX=0;exitY=0.5;exitDx=0;exitDy=0;entryX=1.002;entryY=-0.218;entryDx=0;entryDy=0;entryPerimeter=0;strokeColor=#006658;" parent="1" source="MOAt3jkIIzCUCrUjRE3J-9" target="lsndeNtp98q-qGWLqUXU-8" edge="1">
          <mxGeometry width="50" height="50" relative="1" as="geometry">
            <mxPoint x="822.5" y="289" as="sourcePoint" />
            <mxPoint x="842.5" y="245" as="targetPoint" />
          </mxGeometry>
        </mxCell>
        <mxCell id="BlLhq0BqILPrwAbl8OuN-5" value="" style="endArrow=classic;html=1;rounded=0;entryX=0.5;entryY=1;entryDx=0;entryDy=0;exitX=0.5;exitY=0;exitDx=0;exitDy=0;strokeColor=#006658;" parent="1" source="EJO8d3wSVcw2AQ6vubc--1" target="MOAt3jkIIzCUCrUjRE3J-27" edge="1">
          <mxGeometry width="50" height="50" relative="1" as="geometry">
            <mxPoint x="920" y="630" as="sourcePoint" />
            <mxPoint x="970" y="580" as="targetPoint" />
          </mxGeometry>
        </mxCell>
        <mxCell id="lsndeNtp98q-qGWLqUXU-1" value="" style="endArrow=none;html=1;rounded=0;entryX=0.5;entryY=0;entryDx=0;entryDy=0;strokeColor=#006658;exitX=0.5;exitY=1;exitDx=0;exitDy=0;" parent="1" source="EJO8d3wSVcw2AQ6vubc--1" target="XN73OdUqLW7g3KTcrhYA-1" edge="1">
          <mxGeometry width="50" height="50" relative="1" as="geometry">
            <mxPoint x="720" y="670" as="sourcePoint" />
            <mxPoint x="720" y="715" as="targetPoint" />
          </mxGeometry>
        </mxCell>
        <mxCell id="lsndeNtp98q-qGWLqUXU-6" value="Employé" style="swimlane;fontStyle=1;align=center;verticalAlign=top;childLayout=stackLayout;horizontal=1;startSize=26;horizontalStack=0;resizeParent=1;resizeLast=0;collapsible=1;marginBottom=0;rounded=0;shadow=0;strokeWidth=1;labelBackgroundColor=none;fillColor=#21C0A5;strokeColor=#006658;fontColor=#5C5C5C;" parent="1" vertex="1">
          <mxGeometry x="637" y="200" width="160" height="90" as="geometry">
            <mxRectangle x="340" y="380" width="170" height="26" as="alternateBounds" />
          </mxGeometry>
        </mxCell>
        <mxCell id="lsndeNtp98q-qGWLqUXU-7" value="id_employe : int" style="text;align=left;verticalAlign=top;spacingLeft=4;spacingRight=4;overflow=hidden;rotatable=0;points=[[0,0.5],[1,0.5]];portConstraint=eastwest;fontStyle=4;labelBackgroundColor=none;fontColor=#5C5C5C;" parent="lsndeNtp98q-qGWLqUXU-6" vertex="1">
          <mxGeometry y="26" width="160" height="26" as="geometry" />
        </mxCell>
        <mxCell id="lsndeNtp98q-qGWLqUXU-8" value="specialisation : String" style="text;align=left;verticalAlign=top;spacingLeft=4;spacingRight=4;overflow=hidden;rotatable=0;points=[[0,0.5],[1,0.5]];portConstraint=eastwest;rounded=0;shadow=0;html=0;labelBackgroundColor=none;fontColor=#5C5C5C;" parent="lsndeNtp98q-qGWLqUXU-6" vertex="1">
          <mxGeometry y="52" width="160" height="26" as="geometry" />
        </mxCell>
        <mxCell id="lsndeNtp98q-qGWLqUXU-11" value="" style="endArrow=classic;html=1;rounded=0;entryX=0.5;entryY=0;entryDx=0;entryDy=0;strokeColor=#006658;" parent="1" target="MOAt3jkIIzCUCrUjRE3J-27" edge="1">
          <mxGeometry width="50" height="50" relative="1" as="geometry">
            <mxPoint x="720" y="290" as="sourcePoint" />
            <mxPoint x="600" y="300" as="targetPoint" />
          </mxGeometry>
        </mxCell>
        <mxCell id="4ZgYQ5UGcpdkxXaDe-Za-4" value="" style="endArrow=none;html=1;rounded=0;dashed=1;labelBackgroundColor=none;fontColor=default;strokeColor=#006658;entryX=0;entryY=0.5;entryDx=0;entryDy=0;" parent="1" target="4ZgYQ5UGcpdkxXaDe-Za-6" edge="1">
          <mxGeometry width="50" height="50" relative="1" as="geometry">
            <mxPoint x="720" y="730" as="sourcePoint" />
            <mxPoint x="990" y="730" as="targetPoint" />
          </mxGeometry>
        </mxCell>
        <mxCell id="4ZgYQ5UGcpdkxXaDe-Za-5" value="Evaluation_post_vaccin" style="swimlane;fontStyle=1;align=center;verticalAlign=top;childLayout=stackLayout;horizontal=1;startSize=26;horizontalStack=0;resizeParent=1;resizeParentMax=0;resizeLast=0;collapsible=1;marginBottom=0;whiteSpace=wrap;html=1;labelBackgroundColor=none;fillColor=#21C0A5;strokeColor=#006658;fontColor=#5C5C5C;" parent="1" vertex="1">
          <mxGeometry x="1000" y="690" width="150" height="130" as="geometry" />
        </mxCell>
        <mxCell id="4ZgYQ5UGcpdkxXaDe-Za-6" value="&lt;u&gt;id_eval_post : int&lt;/u&gt;" style="text;strokeColor=none;fillColor=none;align=left;verticalAlign=top;spacingLeft=4;spacingRight=4;overflow=hidden;rotatable=0;points=[[0,0.5],[1,0.5]];portConstraint=eastwest;whiteSpace=wrap;html=1;labelBackgroundColor=none;fontColor=#5C5C5C;" parent="4ZgYQ5UGcpdkxXaDe-Za-5" vertex="1">
          <mxGeometry y="26" width="150" height="26" as="geometry" />
        </mxCell>
        <mxCell id="4ZgYQ5UGcpdkxXaDe-Za-7" value="&lt;div&gt;niveau_anticorps :&amp;nbsp;&lt;span style=&quot;text-wrap: nowrap; background-color: initial;&quot;&gt;int&lt;/span&gt;&lt;/div&gt;" style="text;strokeColor=none;fillColor=none;align=left;verticalAlign=top;spacingLeft=4;spacingRight=4;overflow=hidden;rotatable=0;points=[[0,0.5],[1,0.5]];portConstraint=eastwest;whiteSpace=wrap;html=1;labelBackgroundColor=none;fontColor=#5C5C5C;" parent="4ZgYQ5UGcpdkxXaDe-Za-5" vertex="1">
          <mxGeometry y="52" width="150" height="26" as="geometry" />
        </mxCell>
        <mxCell id="4ZgYQ5UGcpdkxXaDe-Za-10" value="&lt;div&gt;effets_secondaire&lt;span style=&quot;color: rgba(0, 0, 0, 0); font-family: monospace; font-size: 0px; text-wrap: nowrap; background-color: initial;&quot;&gt;%3CmxGraphModel%3E%3Croot%3E%3CmxCell%20id%3D%220%22%2F%3E%3CmxCell%20id%3D%221%22%20parent%3D%220%22%2F%3E%3CmxCell%20id%3D%222%22%20value%3D%22%26lt%3Bdiv%26gt%3Bniveau_anticorps%20%3A%26amp%3Bnbsp%3B%26lt%3Bspan%20style%3D%26quot%3Btext-wrap%3A%20nowrap%3B%20background-color%3A%20initial%3B%26quot%3B%26gt%3Bint%26lt%3B%2Fspan%26gt%3B%26lt%3B%2Fdiv%26gt%3B%22%20style%3D%22text%3BstrokeColor%3Dnone%3BfillColor%3Dnone%3Balign%3Dleft%3BverticalAlign%3Dtop%3BspacingLeft%3D4%3BspacingRight%3D4%3Boverflow%3Dhidden%3Brotatable%3D0%3Bpoints%3D%5B%5B0%2C0.5%5D%2C%5B1%2C0.5%5D%5D%3BportConstraint%3Deastwest%3BwhiteSpace%3Dwrap%3Bhtml%3D1%3BlabelBackgroundColor%3Dnone%3BfontColor%3D%235C5C5C%3B%22%20vertex%3D%221%22%20parent%3D%221%22%3E%3CmxGeometry%20x%3D%221000%22%20y%3D%22742%22%20width%3D%22150%22%20height%3D%2226%22%20as%3D%22geometry%22%2F%3E%3C%2FmxCell%3E%3C%2Froot%3E%3C%2FmxGraphModel%3E&lt;/span&gt;&lt;span style=&quot;background-color: initial;&quot;&gt;s&lt;/span&gt;&lt;span style=&quot;background-color: initial; text-wrap: nowrap; color: rgba(0, 0, 0, 0); font-family: monospace; font-size: 0px;&quot;&gt;%3CmxGraphModel%3E%3Croot%3E%3CmxCell%20id%3D%220%22%2F%3E%3CmxCell%20id%3D%221%22%20parent%3D%220%22%2F%3E%3CmxCell%20id%3D%222%22%20value%3D%22%26lt%3Bdiv%26gt%3Bniveau_anticorps%20%3A%26amp%3Bnbsp%3B%26lt%3Bspan%20style%3D%26quot%3Btext-wrap%3A%20nowrap%3B%20background-color%3A%20initial%3B%26quot%3B%26gt%3Bint%26lt%3B%2Fspan%26gt%3B%26lt%3B%2Fdiv%26gt%3B%22%20style%3D%22text%3BstrokeColor%3Dnone%3BfillColor%3Dnone%3Balign%3Dleft%3BverticalAlign%3Dtop%3BspacingLeft%3D4%3BspacingRight%3D4%3Boverflow%3Dhidden%3Brotatable%3D0%3Bpoints%3D%5B%5B0%2C0.5%5D%2C%5B1%2C0.5%5D%5D%3BportConstraint%3Deastwest%3BwhiteSpace%3Dwrap%3Bhtml%3D1%3BlabelBackgroundColor%3Dnone%3BfontColor%3D%235C5C5C%3B%22%20vertex%3D%221%22%20parent%3D%221%22%3E%3CmxGeometry%20x%3D%221000%22%20y%3D%22742%22%20width%3D%22150%22%20height%3D%2226%22%20as%3D%22geometry%22%2F%3E%3C%2FmxCell%3E%3C%2Froot%3E%3C%2FmxGraphModel%3E&lt;/span&gt;&lt;span style=&quot;background-color: initial;&quot;&gt;:&amp;nbsp;&lt;/span&gt;&lt;span style=&quot;background-color: initial; text-wrap: nowrap;&quot;&gt;String&lt;/span&gt;&lt;/div&gt;" style="text;strokeColor=none;fillColor=none;align=left;verticalAlign=top;spacingLeft=4;spacingRight=4;overflow=hidden;rotatable=0;points=[[0,0.5],[1,0.5]];portConstraint=eastwest;whiteSpace=wrap;html=1;labelBackgroundColor=none;fontColor=#5C5C5C;" parent="4ZgYQ5UGcpdkxXaDe-Za-5" vertex="1">
          <mxGeometry y="78" width="150" height="26" as="geometry" />
        </mxCell>
        <mxCell id="4ZgYQ5UGcpdkxXaDe-Za-11" value="date_evaluation : Date" style="text;strokeColor=none;fillColor=none;align=left;verticalAlign=top;spacingLeft=4;spacingRight=4;overflow=hidden;rotatable=0;points=[[0,0.5],[1,0.5]];portConstraint=eastwest;whiteSpace=wrap;html=1;labelBackgroundColor=none;fontColor=#5C5C5C;" parent="4ZgYQ5UGcpdkxXaDe-Za-5" vertex="1">
          <mxGeometry y="104" width="150" height="26" as="geometry" />
        </mxCell>
        <mxCell id="uN9M5zmHC9CaSUZjydcc-1" value="est fait pour&lt;div&gt;&lt;br&gt;&lt;/div&gt;" style="text;html=1;align=center;verticalAlign=middle;resizable=0;points=[];autosize=1;strokeColor=none;fillColor=none;" parent="1" vertex="1">
          <mxGeometry x="725" y="763" width="90" height="40" as="geometry" />
        </mxCell>
        <mxCell id="uN9M5zmHC9CaSUZjydcc-2" value="1..1" style="text;html=1;align=center;verticalAlign=middle;resizable=0;points=[];autosize=1;strokeColor=none;fillColor=none;" parent="1" vertex="1">
          <mxGeometry x="685" y="633" width="40" height="30" as="geometry" />
        </mxCell>
        <mxCell id="uN9M5zmHC9CaSUZjydcc-3" value="reçoit&lt;div&gt;&lt;br&gt;&lt;/div&gt;" style="text;html=1;align=center;verticalAlign=middle;resizable=0;points=[];autosize=1;strokeColor=none;fillColor=none;" parent="1" vertex="1">
          <mxGeometry x="722.5" y="640" width="50" height="40" as="geometry" />
        </mxCell>
        <mxCell id="uN9M5zmHC9CaSUZjydcc-4" value="1..*" style="text;html=1;align=center;verticalAlign=middle;resizable=0;points=[];autosize=1;strokeColor=none;fillColor=none;" parent="1" vertex="1">
          <mxGeometry x="667.5" y="763" width="40" height="30" as="geometry" />
        </mxCell>
        <mxCell id="uN9M5zmHC9CaSUZjydcc-5" value="1..*" style="text;html=1;align=center;verticalAlign=middle;resizable=0;points=[];autosize=1;strokeColor=none;fillColor=none;" parent="1" vertex="1">
          <mxGeometry x="1190" y="1093" width="40" height="30" as="geometry" />
        </mxCell>
        <mxCell id="uN9M5zmHC9CaSUZjydcc-6" value="est contrôlé" style="text;html=1;align=center;verticalAlign=middle;resizable=0;points=[];autosize=1;strokeColor=none;fillColor=none;" parent="1" vertex="1">
          <mxGeometry x="825" y="860" width="90" height="30" as="geometry" />
        </mxCell>
        <mxCell id="uN9M5zmHC9CaSUZjydcc-7" value="est fait pour" style="text;html=1;align=center;verticalAlign=middle;resizable=0;points=[];autosize=1;strokeColor=none;fillColor=none;" parent="1" vertex="1">
          <mxGeometry x="910" y="860" width="90" height="30" as="geometry" />
        </mxCell>
        <mxCell id="uN9M5zmHC9CaSUZjydcc-8" value="1..1" style="text;html=1;align=center;verticalAlign=middle;resizable=0;points=[];autosize=1;strokeColor=none;fillColor=none;" parent="1" vertex="1">
          <mxGeometry x="845" y="898" width="40" height="30" as="geometry" />
        </mxCell>
        <mxCell id="uN9M5zmHC9CaSUZjydcc-9" value="1..1" style="text;html=1;align=center;verticalAlign=middle;resizable=0;points=[];autosize=1;strokeColor=none;fillColor=none;" parent="1" vertex="1">
          <mxGeometry x="950" y="890" width="40" height="30" as="geometry" />
        </mxCell>
        <mxCell id="641LNGWq41PguH9bQTcU-8" value="Evaluation_pre_vaccin" style="swimlane;fontStyle=1;align=center;verticalAlign=top;childLayout=stackLayout;horizontal=1;startSize=26;horizontalStack=0;resizeParent=1;resizeParentMax=0;resizeLast=0;collapsible=1;marginBottom=0;whiteSpace=wrap;html=1;labelBackgroundColor=none;fillColor=#21C0A5;strokeColor=#006658;fontColor=#5C5C5C;" parent="1" vertex="1">
          <mxGeometry x="390" y="663" width="150" height="106" as="geometry" />
        </mxCell>
        <mxCell id="641LNGWq41PguH9bQTcU-9" value="&lt;u&gt;id_eval_pre : int&lt;/u&gt;" style="text;strokeColor=none;fillColor=none;align=left;verticalAlign=top;spacingLeft=4;spacingRight=4;overflow=hidden;rotatable=0;points=[[0,0.5],[1,0.5]];portConstraint=eastwest;whiteSpace=wrap;html=1;labelBackgroundColor=none;fontColor=#5C5C5C;" parent="641LNGWq41PguH9bQTcU-8" vertex="1">
          <mxGeometry y="26" width="150" height="26" as="geometry" />
        </mxCell>
        <mxCell id="641LNGWq41PguH9bQTcU-10" value="resultat: boolen" style="text;strokeColor=none;fillColor=none;align=left;verticalAlign=top;spacingLeft=4;spacingRight=4;overflow=hidden;rotatable=0;points=[[0,0.5],[1,0.5]];portConstraint=eastwest;whiteSpace=wrap;html=1;labelBackgroundColor=none;fontColor=#5C5C5C;" parent="641LNGWq41PguH9bQTcU-8" vertex="1">
          <mxGeometry y="52" width="150" height="28" as="geometry" />
        </mxCell>
        <mxCell id="641LNGWq41PguH9bQTcU-12" value="date_eval : Date" style="text;strokeColor=none;fillColor=none;align=left;verticalAlign=top;spacingLeft=4;spacingRight=4;overflow=hidden;rotatable=0;points=[[0,0.5],[1,0.5]];portConstraint=eastwest;whiteSpace=wrap;html=1;labelBackgroundColor=none;fontColor=#5C5C5C;" parent="641LNGWq41PguH9bQTcU-8" vertex="1">
          <mxGeometry y="80" width="150" height="26" as="geometry" />
        </mxCell>
        <mxCell id="641LNGWq41PguH9bQTcU-13" value="" style="endArrow=none;html=1;rounded=0;dashed=1;labelBackgroundColor=none;fontColor=default;strokeColor=#006658;" parent="1" edge="1">
          <mxGeometry width="50" height="50" relative="1" as="geometry">
            <mxPoint x="540" y="716.5" as="sourcePoint" />
            <mxPoint x="720" y="716" as="targetPoint" />
          </mxGeometry>
        </mxCell>
        <mxCell id="MIrldNsZMMHq9Wfhh6Rb-1" value="" style="endArrow=none;html=1;rounded=0;exitX=0;exitY=0.5;exitDx=0;exitDy=0;entryX=1;entryY=0.5;entryDx=0;entryDy=0;" parent="1" source="EJO8d3wSVcw2AQ6vubc--2" target="TOctht0321jSjNGEh-xr-2" edge="1">
          <mxGeometry width="50" height="50" relative="1" as="geometry">
            <mxPoint x="510" y="570" as="sourcePoint" />
            <mxPoint x="410" y="580" as="targetPoint" />
          </mxGeometry>
        </mxCell>
        <mxCell id="SeyCWCJscr4yqqg2rJKO-1" value="1..1" style="text;html=1;align=center;verticalAlign=middle;whiteSpace=wrap;rounded=0;labelBackgroundColor=none;fontColor=#5C5C5C;" parent="1" vertex="1">
          <mxGeometry x="370" y="585" width="60" height="30" as="geometry" />
        </mxCell>
        <mxCell id="SeyCWCJscr4yqqg2rJKO-2" value="1..1" style="text;html=1;align=center;verticalAlign=middle;whiteSpace=wrap;rounded=0;labelBackgroundColor=none;fontColor=#5C5C5C;" parent="1" vertex="1">
          <mxGeometry x="577" y="585" width="60" height="30" as="geometry" />
        </mxCell>
        <mxCell id="SeyCWCJscr4yqqg2rJKO-3" value="possède" style="text;html=1;align=center;verticalAlign=middle;resizable=0;points=[];autosize=1;strokeColor=none;fillColor=none;" parent="1" vertex="1">
          <mxGeometry x="570" y="555" width="70" height="30" as="geometry" />
        </mxCell>
        <mxCell id="SeyCWCJscr4yqqg2rJKO-5" value="appartient à" style="text;html=1;align=center;verticalAlign=middle;resizable=0;points=[];autosize=1;strokeColor=none;fillColor=none;" parent="1" vertex="1">
          <mxGeometry x="370" y="555" width="90" height="30" as="geometry" />
        </mxCell>
        <mxCell id="TOctht0321jSjNGEh-xr-8" value="&lt;p style=&quot;margin:0px;margin-top:4px;text-align:center;&quot;&gt;&amp;lt;&amp;lt;enumeration&amp;gt;&amp;gt;&lt;br&gt;&lt;b&gt;types_allergies&lt;/b&gt;&lt;/p&gt;&lt;hr&gt;&lt;p style=&quot;margin:0px;margin-left:8px;text-align:left;&quot;&gt;Œufs&lt;/p&gt;&lt;p style=&quot;margin: 0px 0px 0px 8px; text-align: left;&quot;&gt;Soja&lt;/p&gt;&lt;p style=&quot;margin: 0px 0px 0px 8px; text-align: left;&quot;&gt;Latex&lt;/p&gt;&lt;p style=&quot;margin: 0px 0px 0px 8px; text-align: left;&quot;&gt;Sulfites&lt;br&gt;&lt;/p&gt;&lt;p style=&quot;margin:0px;margin-left:8px;text-align:left;&quot;&gt;Arachides&lt;/p&gt;&lt;p style=&quot;margin: 0px 0px 0px 8px; text-align: left;&quot;&gt;Acariens&lt;/p&gt;&lt;p style=&quot;margin: 0px 0px 0px 8px; text-align: left;&quot;&gt;Moisissures&lt;/p&gt;&lt;p style=&quot;margin:0px;margin-left:8px;text-align:left;&quot;&gt;Fruits de mer&lt;/p&gt;&lt;p style=&quot;margin:0px;margin-left:8px;text-align:left;&quot;&gt;Produits laitiers&lt;/p&gt;&lt;p style=&quot;margin:0px;margin-left:8px;text-align:left;&quot;&gt;Antibiotiques (comme la pénicilline)&lt;/p&gt;&lt;p style=&quot;margin:0px;margin-left:8px;text-align:left;&quot;&gt;Noix (telles que les noix de cajou, les noisettes, etc.)&lt;/p&gt;&lt;p style=&quot;margin:0px;margin-left:8px;text-align:left;&quot;&gt;Médicaments anti-inflammatoires non stéroïdiens (AINS)&lt;/p&gt;&lt;p style=&quot;margin:0px;margin-left:8px;text-align:left;&quot;&gt;Piqûres d&#39;insectes (comme les abeilles ou les guêpes)&lt;/p&gt;&lt;p style=&quot;margin:0px;margin-left:8px;text-align:left;&quot;&gt;Certains médicaments (comme les médicaments contre le rhume ou la grippe)&lt;/p&gt;&lt;p style=&quot;margin:0px;margin-left:8px;text-align:left;&quot;&gt;Produits chimiques (ex. conservateurs ou colorants)&lt;/p&gt;" style="shape=rect;html=1;overflow=fill;whiteSpace=wrap;" parent="1" vertex="1">
          <mxGeometry x="-350" y="560" width="450" height="280" as="geometry" />
        </mxCell>
        <mxCell id="TOctht0321jSjNGEh-xr-9" value="&lt;p style=&quot;margin:0px;margin-top:4px;text-align:center;&quot;&gt;&amp;lt;&amp;lt;enumeration&amp;gt;&amp;gt;&lt;br&gt;&lt;b&gt;types_maladies&lt;/b&gt;&lt;/p&gt;&lt;hr&gt;&lt;p style=&quot;margin:0px;margin-left:8px;text-align:left;&quot;&gt;Immunodéficience combinée sévère (SCID)&lt;/p&gt;&lt;p style=&quot;margin:0px;margin-left:8px;text-align:left;&quot;&gt;Syndrome de Guillain-Barré (SGB)&lt;/p&gt;&lt;p style=&quot;margin:0px;margin-left:8px;text-align:left;&quot;&gt;Grossesse&lt;/p&gt;&lt;p style=&quot;margin:0px;margin-left:8px;text-align:left;&quot;&gt;Maladie Pulmonaire Obstructive Chronique (MPOC)&lt;/p&gt;&lt;p style=&quot;margin:0px;margin-left:8px;text-align:left;&quot;&gt;Transplantation d&#39;organe&amp;nbsp;&lt;/p&gt;&lt;p style=&quot;margin:0px;margin-left:8px;text-align:left;&quot;&gt;Insuffisance rénale terminale (IRT)&lt;/p&gt;&lt;p style=&quot;margin:0px;margin-left:8px;text-align:left;&quot;&gt;Cirrhose (Maladie hépatique avancée)&lt;/p&gt;&lt;p style=&quot;margin:0px;margin-left:8px;text-align:left;&quot;&gt;Chimiothérapie ou radiothérapie pour le cancer&lt;/p&gt;&lt;p style=&quot;margin:0px;margin-left:8px;text-align:left;&quot;&gt;Maladies auto-immunes (ex: lupus, polyarthrite rhumatoïde)&amp;nbsp;&lt;/p&gt;&lt;p style=&quot;margin:0px;margin-left:8px;text-align:left;&quot;&gt;Épilepsie (dans certains cas spécifiques)&lt;/p&gt;&lt;p style=&quot;margin:0px;margin-left:8px;text-align:left;&quot;&gt;Hémophilie (Trouble de la coagulation sévère)&amp;nbsp;&lt;/p&gt;&lt;p style=&quot;margin:0px;margin-left:8px;text-align:left;&quot;&gt;Virus de l&#39;immunodéficience humaine (VIH)&lt;/p&gt;&lt;p style=&quot;margin:0px;margin-left:8px;text-align:left;&quot;&gt;Asthme sévère&lt;/p&gt;&lt;p style=&quot;margin:0px;margin-left:8px;text-align:left;&quot;&gt;Fibrose kystique&lt;/p&gt;" style="shape=rect;html=1;overflow=fill;whiteSpace=wrap;" parent="1" vertex="1">
          <mxGeometry x="-270" y="220" width="360" height="280" as="geometry" />
        </mxCell>
        <mxCell id="TOctht0321jSjNGEh-xr-15" value="" style="edgeStyle=entityRelationEdgeStyle;fontSize=12;html=1;endArrow=blockThin;endFill=1;startArrow=none;rounded=0;startFill=0;dashed=1;entryX=1;entryY=0.5;entryDx=0;entryDy=0;exitX=0;exitY=0.5;exitDx=0;exitDy=0;" parent="1" source="TOctht0321jSjNGEh-xr-1" target="TOctht0321jSjNGEh-xr-9" edge="1">
          <mxGeometry width="60" height="60" relative="1" as="geometry">
            <mxPoint x="-140" y="540" as="sourcePoint" />
            <mxPoint x="-80" y="480" as="targetPoint" />
          </mxGeometry>
        </mxCell>
        <mxCell id="TOctht0321jSjNGEh-xr-16" value="" style="edgeStyle=entityRelationEdgeStyle;fontSize=12;html=1;endArrow=blockThin;endFill=1;startArrow=none;rounded=0;startFill=0;dashed=1;exitX=0;exitY=0.5;exitDx=0;exitDy=0;entryX=1;entryY=0.25;entryDx=0;entryDy=0;" parent="1" source="TOctht0321jSjNGEh-xr-2" target="TOctht0321jSjNGEh-xr-8" edge="1">
          <mxGeometry width="60" height="60" relative="1" as="geometry">
            <mxPoint x="-110" y="890" as="sourcePoint" />
            <mxPoint x="-50" y="830" as="targetPoint" />
          </mxGeometry>
        </mxCell>
      </root>
    </mxGraphModel>
  </diagram>
</mxfile>
